<?xml version="1.0" standalone="no"?>
<svg xmlns:xlink="http://www.w3.org/1999/xlink" id="wave" style="transform:rotate(180deg); transition: 0.3s" viewBox="0 0 1440 490" version="1.1" xmlns="http://www.w3.org/2000/svg"><defs><linearGradient id="sw-gradient-0" x1="0" x2="0" y1="1" y2="0"><stop stop-color="rgba(48, 131, 85, 1)" offset="0%"/><stop stop-color="rgba(60, 179, 113, 1)" offset="100%"/></linearGradient></defs><path style="transform:translate(0, 0px); opacity:1" fill="url(#sw-gradient-0)" d="M0,245L40,277.7C80,310,160,376,240,400.2C320,425,400,408,480,359.3C560,310,640,229,720,212.3C800,196,880,245,960,245C1040,245,1120,196,1200,171.5C1280,147,1360,147,1440,122.5C1520,98,1600,49,1680,65.3C1760,82,1840,163,1920,171.5C2000,180,2080,114,2160,81.7C2240,49,2320,49,2400,40.8C2480,33,2560,16,2640,24.5C2720,33,2800,65,2880,130.7C2960,196,3040,294,3120,294C3200,294,3280,196,3360,163.3C3440,131,3520,163,3600,155.2C3680,147,3760,98,3840,138.8C3920,180,4000,310,4080,367.5C4160,425,4240,408,4320,367.5C4400,327,4480,261,4560,261.3C4640,261,4720,327,4800,359.3C4880,392,4960,392,5040,367.5C5120,343,5200,294,5280,236.8C5360,180,5440,114,5520,122.5C5600,131,5680,212,5720,253.2L5760,294L5760,490L5720,490C5680,490,5600,490,5520,490C5440,490,5360,490,5280,490C5200,490,5120,490,5040,490C4960,490,4880,490,4800,490C4720,490,4640,490,4560,490C4480,490,4400,490,4320,490C4240,490,4160,490,4080,490C4000,490,3920,490,3840,490C3760,490,3680,490,3600,490C3520,490,3440,490,3360,490C3280,490,3200,490,3120,490C3040,490,2960,490,2880,490C2800,490,2720,490,2640,490C2560,490,2480,490,2400,490C2320,490,2240,490,2160,490C2080,490,2000,490,1920,490C1840,490,1760,490,1680,490C1600,490,1520,490,1440,490C1360,490,1280,490,1200,490C1120,490,1040,490,960,490C880,490,800,490,720,490C640,490,560,490,480,490C400,490,320,490,240,490C160,490,80,490,40,490L0,490Z"/></svg>